<svg width="22" height="20" viewBox="0 0 22 20" fill="none" xmlns="http://www.w3.org/2000/svg">
<g clip-path="url(#clip0_632_519)">
<path d="M0.0510347 7.31667L4.05187 19.3158C4.18853 19.7167 4.56103 19.9992 5.0002 20H20.9994C21.0394 20 21.0785 19.9975 21.1169 19.9925L21.1119 19.9933L21.1419 19.9883C21.1683 19.9849 21.1944 19.9799 21.2202 19.9733L21.2519 19.9658C21.2777 19.9592 21.3035 19.9508 21.3302 19.9425L21.3602 19.9317C21.386 19.9217 21.411 19.9108 21.4385 19.8975L21.4627 19.8858C21.4956 19.8691 21.5273 19.8502 21.5577 19.8292L21.5544 19.8317C21.5852 19.8111 21.6147 19.7885 21.6427 19.7642L21.641 19.765L21.6644 19.7442L21.7202 19.6908L21.746 19.6625C21.7633 19.6435 21.7794 19.6234 21.7944 19.6025L21.8085 19.585L21.8152 19.575C21.8341 19.5483 21.8516 19.5206 21.8677 19.4917L21.8735 19.4825C21.8909 19.4516 21.9062 19.4196 21.9194 19.3867L21.9219 19.38L21.9277 19.3642C21.9394 19.3353 21.9494 19.3058 21.9577 19.2758C21.9577 19.2658 21.9635 19.2558 21.9652 19.245C21.9719 19.22 21.9769 19.195 21.9819 19.1667C21.9819 19.1542 21.986 19.1417 21.9877 19.1292L21.9944 19.0583C21.996 19.035 21.9944 19.03 21.9944 19.0158V1C21.9944 0.735791 21.8898 0.482317 21.7035 0.294948C21.5173 0.107578 21.2644 0.00154122 21.0002 0L13.0002 0C12.735 0 12.4806 0.105357 12.2931 0.292893C12.1056 0.48043 12.0002 0.734784 12.0002 1V2H5.0002C4.73498 2 4.48063 2.10536 4.29309 2.29289C4.10556 2.48043 4.0002 2.73478 4.0002 3V6H1.0002C0.841351 6.00016 0.684824 6.03816 0.543583 6.11086C0.402343 6.18356 0.280453 6.28885 0.188007 6.41803C0.0955617 6.54721 0.0352204 6.69656 0.0119806 6.8537C-0.0112593 7.01084 0.00327097 7.17126 0.054368 7.32167L0.051868 7.315L0.0510347 7.31667ZM19.9994 2V12.8358L17.9477 6.68167C17.8812 6.48267 17.7539 6.30959 17.5837 6.18683C17.4136 6.06408 17.2092 5.99785 16.9994 5.9975H6.0002V4H13.0002C13.2654 4 13.5198 3.89464 13.7073 3.70711C13.8948 3.51957 14.0002 3.26522 14.0002 3V2.00083L19.9994 2ZM2.3877 8H16.2794L19.6127 18H5.72103L2.3877 8Z" fill="#9987FF"/>
</g>
<defs>
<clipPath id="clip0_632_519">
<rect width="21.6667" height="20" fill="white"/>
</clipPath>
</defs>
</svg>
